<svg version="1.2" xmlns="http://www.w3.org/2000/svg" viewBox="0 0 512 512" width="512" height="512"><style></style><path fill-rule="evenodd" d="m91 331v75c0 8.3 6.7 15 15 15h75v35h-75c-27.6 0-50-22.4-50-50v-75zm-35-225c0-27.6 22.4-50 50-50h75v35h-75c-8.3 0-15 6.7-15 15v75h-35zm350-50c27.6 0 50 22.4 50 50v75h-35v-75c0-8.3-6.7-15-15-15h-75v-35zm50 350c0 27.6-22.4 50-50 50h-75v-35h75c8.3 0 15-6.7 15-15v-75h35z"/><path  d="m232 321.8c7.5 2.7 15.6 4.2 24 4.2 38.7 0 70-31.3 70-70 0-8.4-1.5-16.5-4.2-24l22.7-22.7c7.3 14 11.5 29.8 11.5 46.7 0 55.2-44.8 100-100 100-16.9 0-32.7-4.2-46.7-11.5z"/><path  d="m279 189.9c-7.2-2.5-14.9-3.9-23-3.9-38.7 0-70 31.3-70 70 0 8.1 1.4 15.8 3.9 23l-22.8 22.8c-7.1-13.7-11.1-29.3-11.1-45.8 0-55.2 44.8-100 100-100 16.5 0 32.1 4 45.8 11.1z"/><path  d="m148 342.5l194.5-194.5 21.2 21.2-194.5 194.5z"/></svg>